<?xml version="1.0" encoding="utf-8"?>
<!-- Generator: Adobe Illustrator 21.0.2, SVG Export Plug-In . SVG Version: 6.00 Build 0)  -->
<svg version="1.1" id="Ebene_1" xmlns="http://www.w3.org/2000/svg" xmlns:xlink="http://www.w3.org/1999/xlink" x="0px" y="0px"
	 viewBox="0 0 198.4 31.4" style="enable-background:new 0 0 198.4 31.4;" xml:space="preserve">
<style type="text/css">
	.st0{fill:#5EB130;}
	.st1{fill:#5A7A3D;}
</style>
<g>
	<path class="st0" d="M0,0h19.9v6h-13v6.8h11.2v5.7H6.9v12.9H0V0z"/>
	<path class="st0" d="M25.4,0h19.4v6H32.3v6.2h10.8v5.7H32.3v7.5h13v6H25.4V0z"/>
	<path class="st0" d="M50.6,0H70v6H57.5v6.2h10.8v5.7H57.5v7.5h13v6H50.6V0z"/>
	<path class="st0" d="M75.8,0h8.8c5.6,0,9.9,0.9,13.2,3.2c3.9,2.7,6,7.1,6,12.5c0,4.9-1.9,9.2-5.2,11.9c-3.2,2.6-7.7,3.9-14.3,3.9
		h-8.5V0z M84.6,25.4c4.5,0,7.3-0.8,9.3-2.5c1.9-1.6,3-4.1,3-7.2c0-3.3-1.3-6.1-3.6-7.7C91.1,6.4,88.1,6,84.6,6h-1.9v19.3H84.6z"/>
	<path class="st0" d="M108.9,0h9.8c3.7,0,7.2,0.5,9.8,2.1c2.3,1.4,3.8,3.8,3.8,7.4c0,4-2.2,7.3-6.4,8.7l8.8,13.3h-7.9L118.9,19h-3.1
		v12.4h-6.9V0z M119.3,13.8c1.9,0,3.3-0.2,4.3-0.7c1.2-0.6,1.8-1.6,1.8-3.2c0-1.5-0.5-2.4-1.8-3.1c-1.1-0.6-2.8-0.8-5.2-0.8h-2.6
		v7.8H119.3z"/>
	<path class="st0" d="M174.7,0h9.3c3.7,0,6.9,0.3,9.3,1.6c2.7,1.4,5.1,4.1,5.1,8.4c0,3.9-1.9,6.6-4.5,8.2c-2.4,1.4-5.6,2-10.1,2
		h-2.2v11.2h-6.9V0z M184.1,14.6c2.7,0,4.3-0.1,5.5-0.8c1.3-0.7,2-1.9,2-3.4c0-1.8-0.8-3-2.2-3.7c-1.3-0.6-3-0.7-5.4-0.7h-2.3v8.5
		H184.1z"/>
</g>
<g>
	<g>
		<g>
			<path class="st0" d="M168.7,6.2l2-5.9h-18.3c-4.2,0-8.1,1.6-11,4.6c-2.9,2.9-4.6,6.9-4.6,11c0,4.2,1.6,8.1,4.6,11
				c2.9,2.9,6.9,4.6,11,4.6c4.2,0,8.1-1.6,11-4.6c2.9-2.9,4.6-6.9,4.6-11c0-3.5-1.2-6.9-3.4-9.7H168.7z M152.4,25.5
				c-5.3,0-9.7-4.3-9.7-9.7c0-5.3,4.3-9.7,9.7-9.7c5.3,0,9.7,4.3,9.7,9.7C162.1,21.2,157.7,25.5,152.4,25.5z"/>
		</g>
		<g>
			<g>
				<path class="st1" d="M164.6,6.2h-12.2c3.9,0,7.3,2.3,8.8,5.7h6.3C166.9,9.8,165.9,7.9,164.6,6.2z"/>
			</g>
		</g>
	</g>
</g>
</svg>
