<?xml version="1.0" encoding="utf-8"?>
<!-- Generator: Adobe Illustrator 21.0.2, SVG Export Plug-In . SVG Version: 6.00 Build 0)  -->
<svg version="1.1" id="Layer_1" xmlns="http://www.w3.org/2000/svg" xmlns:xlink="http://www.w3.org/1999/xlink" x="0px" y="0px"
	 viewBox="0 0 200 200" style="enable-background:new 0 0 200 200;" xml:space="preserve">
<style type="text/css">
	.st0{fill:#5EB030;}
	.st1{fill:#F5F5F5;}
	.st2{fill:#C6C6C5;}
</style>
<g>
	<path class="st0" d="M100.4,198L100.4,198C47,198,3.8,154.7,3.8,101.4S47,4.8,100.4,4.8c53.4,0,96.6,43.3,96.6,96.6
		S153.7,198,100.4,198"/>
	
		<rect x="24" y="117.6" transform="matrix(-3.186606e-10 -1 1 -3.186606e-10 -66.7863 189.5551)" class="st1" width="74.7" height="21.1"/>
	
		<rect x="48.4" y="48.3" transform="matrix(0.9417 -0.3365 0.3365 0.9417 -13.3242 30.2138)" class="st1" width="64.3" height="10.6"/>
	
		<rect x="57.3" y="125.7" transform="matrix(-4.067714e-10 -1 1 -4.067714e-10 -49.7169 222.8116)" class="st1" width="58.5" height="21.1"/>
	
		<rect x="66.2" y="109.4" transform="matrix(-2.615152e-10 -1 1 -2.615152e-10 -8.2853 231.7057)" class="st1" width="91" height="21.1"/>
	
		<rect x="81.4" y="99.5" transform="matrix(-2.144968e-10 -1 1 -2.144968e-10 26.8399 246.9064)" class="st2" width="111" height="21.1"/>
	<polygon class="st1" points="123.8,38.3 86.5,32.4 97.9,65.3 	"/>
</g>
</svg>
