<?xml version="1.0" encoding="utf-8"?>
<!-- Generator: Adobe Illustrator 21.0.2, SVG Export Plug-In . SVG Version: 6.00 Build 0)  -->
<svg version="1.1" id="Layer_1" xmlns="http://www.w3.org/2000/svg" xmlns:xlink="http://www.w3.org/1999/xlink" x="0px" y="0px"
	 viewBox="0 0 200 200" style="enable-background:new 0 0 200 200;" xml:space="preserve">
<style type="text/css">
	.st0{fill:#5EB030;}
	.st1{fill:#F5F5F5;}
	.st2{fill:#A4A1A0;}
	.st3{fill:#5EB030;stroke:#5EB030;stroke-width:2.3118;stroke-miterlimit:10;}
</style>
<path class="st0" d="M100.3,197L100.3,197C46.6,197,3,153.4,3,99.7S46.6,2.3,100.3,2.3c53.8,0,97.3,43.6,97.3,97.3
	S154.1,197,100.3,197"/>
<path class="st1" d="M100.3,19.1c-44.7,0-81,36.3-81,81s36.3,81,81,81s81-36.3,81-81S145.1,19.1,100.3,19.1z M100.3,165.4
	c-35,0-63.4-28.4-63.4-63.4c0-35,28.4-63.4,63.4-63.4c35,0,63.4,28.4,63.4,63.4C163.7,137,135.3,165.4,100.3,165.4z"/>
<rect x="142" y="99.4" transform="matrix(0.9039 0.4277 -0.4277 0.9039 69.193 -56.3052)" class="st0" width="35.8" height="52.8"/>
<path class="st2" d="M154.5,57.9L154.5,57.9c6.1,7.8,10.6,16.7,13.1,26.2h0C165,74.6,160.6,65.7,154.5,57.9"/>
<rect x="23.5" y="41.7" transform="matrix(0.9547 0.2977 -0.2977 0.9547 22.1579 -9.2225)" class="st0" width="35.8" height="52.8"/>
<circle class="st1" cx="99.9" cy="100.1" r="46.4"/>
<g>
	<path class="st3" d="M97.9,135.1v-8.7c-5-0.1-10.1-1.6-13.1-3.8l2.1-5.7c3.1,2.1,7.5,3.7,12.3,3.7c6.1,0,10.2-3.5,10.2-8.4
		c0-4.7-3.3-7.6-9.7-10.2c-8.7-3.4-14.1-7.4-14.1-14.8c0-7.1,5.1-12.5,12.9-13.8v-8.7h5.3V73c5.1,0.2,8.7,1.5,11.1,3l-2.1,5.7
		c-1.8-1-5.3-2.9-10.8-2.9c-6.6,0-9.1,3.9-9.1,7.4c0,4.5,3.2,6.7,10.6,9.8c8.8,3.6,13.3,8.1,13.3,15.7c0,6.8-4.7,13.1-13.5,14.6v8.9
		H97.9z"/>
</g>
<polygon class="st1" points="28.9,64.2 5.9,107.9 51.4,107.8 "/>
<polygon class="st1" points="170.4,130.3 193.5,86.6 148,86.6 "/>
<g>
</g>
<g>
</g>
<g>
</g>
<g>
</g>
<g>
</g>
<g>
</g>
<g>
</g>
<g>
</g>
<g>
</g>
<g>
</g>
<g>
</g>
<g>
</g>
<g>
</g>
<g>
</g>
<g>
</g>
</svg>
