<?xml version="1.0" encoding="utf-8"?>
<!-- Generator: Adobe Illustrator 21.0.2, SVG Export Plug-In . SVG Version: 6.00 Build 0)  -->
<svg version="1.1" id="Layer_1" xmlns="http://www.w3.org/2000/svg" xmlns:xlink="http://www.w3.org/1999/xlink" x="0px" y="0px"
	 viewBox="0 0 200 200" style="enable-background:new 0 0 200 200;" xml:space="preserve">
<style type="text/css">
	.st0{clip-path:url(#SVGID_2_);fill:#5EB030;}
	.st1{clip-path:url(#SVGID_2_);fill:#A4A1A0;}
	.st2{clip-path:url(#SVGID_2_);}
	.st3{fill:#F5F5F5;stroke:#F5F5F5;stroke-width:2.0513;stroke-miterlimit:10;}
	.st4{fill:#F5F5F5;}
	.st5{clip-path:url(#SVGID_2_);fill:#F5F5F5;}
</style>
<g>
	<defs>
		<path id="SVGID_1_" d="M100.4,198L100.4,198c-54,0-97.8-43.8-97.8-97.8S46.4,2.3,100.4,2.3c54,0,97.8,43.8,97.8,97.8
			S154.4,198,100.4,198"/>
	</defs>
	<clipPath id="SVGID_2_">
		<use xlink:href="#SVGID_1_"  style="overflow:visible;"/>
	</clipPath>
	<path class="st0" d="M99,198L99,198c-54,0-97.8-43.8-97.8-97.8S44.9,2.3,99,2.3c54,0,97.8,43.8,97.8,97.8S153,198,99,198"/>
	<path class="st1" d="M153.4,58.2L153.4,58.2c6.2,7.8,10.6,16.7,13.1,26.3h0C164,75,159.6,66,153.4,58.2"/>
	
		<rect x="150.2" y="69.9" transform="matrix(0.9996 -2.947982e-02 2.947982e-02 0.9996 -2.77 4.9996)" class="st0" width="36" height="53"/>
	
		<rect x="16.1" y="64.2" transform="matrix(0.9996 -2.947982e-02 2.947982e-02 0.9996 -2.6608 1.0452)" class="st0" width="36" height="53"/>
	<g class="st2">
		<path class="st3" d="M58.9,121.9V108c-8-0.1-16.2-2.6-21.1-6.1l3.3-9.2c5,3.3,12.1,5.9,19.8,5.9c9.8,0,16.4-5.6,16.4-13.5
			c0-7.6-5.4-12.3-15.6-16.4C47.7,63.3,39,57,39,45c0-11.4,8.1-20.1,20.8-22.2V8.9h8.5v13.4c8.3,0.3,13.9,2.5,17.9,4.8l-3.4,9.1
			c-2.9-1.7-8.5-4.7-17.3-4.7c-10.6,0-14.6,6.3-14.6,11.8C50.9,50.5,56,54.1,68,59C82.1,64.8,89.3,72,89.3,84.2
			c0,10.9-7.6,21.1-21.8,23.4v14.3H58.9z"/>
	</g>
	<g class="st2">
		
			<rect x="-12.6" y="160.1" transform="matrix(0.5044 -0.8635 0.8635 0.5044 -135.0016 106.3853)" class="st4" width="75.6" height="21.4"/>
		
			<rect x="42.1" y="121.4" transform="matrix(0.5044 -0.8635 0.8635 0.5044 -68.9784 144.1264)" class="st4" width="98" height="21.4"/>
		
			<rect x="123.4" y="91.9" transform="matrix(0.5044 -0.8635 0.8635 0.5044 -13.1312 182.3101)" class="st4" width="57.8" height="21.4"/>
		
			<rect x="26.3" y="144.7" transform="matrix(0.8635 0.5044 -0.5044 0.8635 85.8913 -6.5098)" class="st4" width="57.4" height="21.4"/>
		
			<rect x="97.3" y="97.7" transform="matrix(0.8635 0.5044 -0.5044 0.8635 71.8628 -48.7935)" class="st4" width="57.6" height="21.4"/>
	</g>
	<polygon class="st5" points="183,50.3 141,76.7 180.7,99.5 	"/>
</g>
<g>
</g>
<g>
</g>
<g>
</g>
<g>
</g>
<g>
</g>
<g>
</g>
<g>
</g>
<g>
</g>
<g>
</g>
<g>
</g>
<g>
</g>
<g>
</g>
<g>
</g>
<g>
</g>
<g>
</g>
</svg>
