<?xml version="1.0" encoding="utf-8"?>
<!-- Generator: Adobe Illustrator 21.0.2, SVG Export Plug-In . SVG Version: 6.00 Build 0)  -->
<svg version="1.1" id="Layer_1" xmlns="http://www.w3.org/2000/svg" xmlns:xlink="http://www.w3.org/1999/xlink" x="0px" y="0px"
	 viewBox="0 0 200 200" style="enable-background:new 0 0 200 200;" xml:space="preserve">
<style type="text/css">
	.st0{fill:#5EB030;}
	.st1{fill:#F5F5F5;}
</style>
<path class="st0" d="M100.4,198L100.4,198c-53.9,0-97.6-43.7-97.6-97.6S46.5,2.8,100.4,2.8c53.9,0,97.6,43.7,97.6,97.6
	S154.3,198,100.4,198"/>
<path class="st1" d="M104.5,163.4l-27-11.5c-0.1,0-0.1-0.1-0.1-0.2l48.2-113.3c0-0.1,0.1-0.1,0.2-0.1l27,11.5c0.1,0,0.1,0.1,0.1,0.2
	l-48.2,113.3C104.7,163.4,104.6,163.4,104.5,163.4z"/>
<path class="st1" d="M105.3,141.1l-27.5,11.1c0,0,0,0,0,0L56.7,99.6c0,0,0,0,0,0l27.5-11.1c0,0,0,0,0,0L105.3,141.1
	C105.3,141.1,105.3,141.1,105.3,141.1z"/>
<g>
</g>
<g>
</g>
<g>
</g>
<g>
</g>
<g>
</g>
<g>
</g>
<g>
</g>
<g>
</g>
<g>
</g>
<g>
</g>
<g>
</g>
<g>
</g>
<g>
</g>
<g>
</g>
<g>
</g>
</svg>
