<?xml version="1.0" encoding="utf-8"?>
<!-- Generator: Adobe Illustrator 21.0.2, SVG Export Plug-In . SVG Version: 6.00 Build 0)  -->
<svg version="1.1" id="Layer_1" xmlns="http://www.w3.org/2000/svg" xmlns:xlink="http://www.w3.org/1999/xlink" x="0px" y="0px"
	 viewBox="0 0 200 200" style="enable-background:new 0 0 200 200;" xml:space="preserve">
<style type="text/css">
	.st0{fill:#5EB030;}
	.st1{fill:#F5F5F5;}
	.st2{fill:#5EB030;stroke:#F5F5F5;stroke-width:1.7008;stroke-miterlimit:10;}
</style>
<g>
	<path class="st0" d="M99.2,196L99.2,196c-52.9,0-95.8-42.9-95.8-95.8S46.2,4.3,99.2,4.3c52.9,0,95.8,42.9,95.8,95.8
		S152.1,196,99.2,196"/>
	<path class="st1" d="M100.4,20.4c-44.1,0-79.8,35.7-79.8,79.8s35.7,79.8,79.8,79.8s79.8-35.7,79.8-79.8S144.4,20.4,100.4,20.4z
		 M100.4,164.5c-34.5,0-62.4-27.9-62.4-62.4c0-34.5,28-62.4,62.4-62.4c34.5,0,62.4,27.9,62.4,62.4
		C162.8,136.5,134.9,164.5,100.4,164.5z"/>
	
		<rect x="140.4" y="105.5" transform="matrix(0.8695 0.494 -0.494 0.8695 85.5454 -60.8959)" class="st0" width="35.2" height="52"/>
	<polygon class="st1" points="169.5,131.5 192.1,88.6 147.4,88.6 	"/>
	<path class="st1" d="M91.5,104.9l9.5-9.5c0.1-0.1,0.4-0.1,0.5,0L141,135c0.1,0.1,0.1,0.4,0,0.5l-9.5,9.5c-0.1,0.1-0.4,0.1-0.5,0
		l-39.5-39.5C91.4,105.3,91.4,105,91.5,104.9z"/>
	<path class="st1" d="M102.8,100.2h-13c-0.3,0-0.6-0.2-0.6-0.6V48.9c0-0.3,0.2-0.6,0.6-0.6h13c0.3,0,0.6,0.2,0.6,0.6v50.7
		C103.3,99.9,103.1,100.2,102.8,100.2z"/>
	<circle class="st2" cx="96.7" cy="100.2" r="9.5"/>
</g>
</svg>
